<mxfile host="Electron" modified="2023-11-10T02:46:48.016Z" agent="Mozilla/5.0 (Windows NT 10.0; Win64; x64) AppleWebKit/537.36 (KHTML, like Gecko) draw.io/22.0.3 Chrome/114.0.5735.289 Electron/25.8.4 Safari/537.36" etag="ZCNf3TgeBu9uNxuaFFJM" version="22.0.3" type="device">
  <diagram name="Page-1" id="P-afp6hQSAGaEdjvHS-H">
    <mxGraphModel dx="1050" dy="621" grid="1" gridSize="10" guides="1" tooltips="1" connect="1" arrows="1" fold="1" page="1" pageScale="1" pageWidth="850" pageHeight="1100" math="0" shadow="0">
      <root>
        <mxCell id="0" />
        <mxCell id="1" parent="0" />
        <mxCell id="B2Yxv_WPyGfu9oXpXjj1-4" value="" style="edgeStyle=orthogonalEdgeStyle;rounded=0;orthogonalLoop=1;jettySize=auto;html=1;" edge="1" parent="1" source="B2Yxv_WPyGfu9oXpXjj1-1" target="B2Yxv_WPyGfu9oXpXjj1-2">
          <mxGeometry relative="1" as="geometry" />
        </mxCell>
        <mxCell id="B2Yxv_WPyGfu9oXpXjj1-1" value="start" style="ellipse;whiteSpace=wrap;html=1;" vertex="1" parent="1">
          <mxGeometry x="340" y="50" width="120" height="80" as="geometry" />
        </mxCell>
        <mxCell id="B2Yxv_WPyGfu9oXpXjj1-6" value="" style="edgeStyle=orthogonalEdgeStyle;rounded=0;orthogonalLoop=1;jettySize=auto;html=1;" edge="1" parent="1" source="B2Yxv_WPyGfu9oXpXjj1-2" target="B2Yxv_WPyGfu9oXpXjj1-5">
          <mxGeometry relative="1" as="geometry" />
        </mxCell>
        <mxCell id="B2Yxv_WPyGfu9oXpXjj1-2" value="nhập a,b,c" style="shape=parallelogram;perimeter=parallelogramPerimeter;whiteSpace=wrap;html=1;fixedSize=1;" vertex="1" parent="1">
          <mxGeometry x="340" y="190" width="120" height="40" as="geometry" />
        </mxCell>
        <mxCell id="B2Yxv_WPyGfu9oXpXjj1-8" value="" style="edgeStyle=orthogonalEdgeStyle;rounded=0;orthogonalLoop=1;jettySize=auto;html=1;" edge="1" parent="1" source="B2Yxv_WPyGfu9oXpXjj1-5" target="B2Yxv_WPyGfu9oXpXjj1-7">
          <mxGeometry relative="1" as="geometry" />
        </mxCell>
        <mxCell id="B2Yxv_WPyGfu9oXpXjj1-5" value="delta= b*b+4*a*c" style="whiteSpace=wrap;html=1;" vertex="1" parent="1">
          <mxGeometry x="340" y="300" width="120" height="60" as="geometry" />
        </mxCell>
        <mxCell id="B2Yxv_WPyGfu9oXpXjj1-10" value="" style="edgeStyle=orthogonalEdgeStyle;rounded=0;orthogonalLoop=1;jettySize=auto;html=1;" edge="1" parent="1" source="B2Yxv_WPyGfu9oXpXjj1-7" target="B2Yxv_WPyGfu9oXpXjj1-9">
          <mxGeometry relative="1" as="geometry" />
        </mxCell>
        <mxCell id="B2Yxv_WPyGfu9oXpXjj1-12" value="" style="edgeStyle=orthogonalEdgeStyle;rounded=0;orthogonalLoop=1;jettySize=auto;html=1;" edge="1" parent="1" source="B2Yxv_WPyGfu9oXpXjj1-7" target="B2Yxv_WPyGfu9oXpXjj1-11">
          <mxGeometry relative="1" as="geometry" />
        </mxCell>
        <mxCell id="B2Yxv_WPyGfu9oXpXjj1-7" value="delta&amp;gt;0" style="rhombus;whiteSpace=wrap;html=1;" vertex="1" parent="1">
          <mxGeometry x="360" y="430" width="80" height="80" as="geometry" />
        </mxCell>
        <mxCell id="B2Yxv_WPyGfu9oXpXjj1-26" value="" style="edgeStyle=orthogonalEdgeStyle;rounded=0;orthogonalLoop=1;jettySize=auto;html=1;" edge="1" parent="1" source="B2Yxv_WPyGfu9oXpXjj1-9" target="B2Yxv_WPyGfu9oXpXjj1-25">
          <mxGeometry relative="1" as="geometry" />
        </mxCell>
        <mxCell id="B2Yxv_WPyGfu9oXpXjj1-9" value="có 2 nghiệm phân biệt:-b+delta/(2*a);&lt;br&gt;-b-delta/(2*a)" style="whiteSpace=wrap;html=1;" vertex="1" parent="1">
          <mxGeometry x="500" y="440" width="120" height="60" as="geometry" />
        </mxCell>
        <mxCell id="B2Yxv_WPyGfu9oXpXjj1-14" value="" style="edgeStyle=orthogonalEdgeStyle;rounded=0;orthogonalLoop=1;jettySize=auto;html=1;" edge="1" parent="1" source="B2Yxv_WPyGfu9oXpXjj1-11" target="B2Yxv_WPyGfu9oXpXjj1-13">
          <mxGeometry relative="1" as="geometry" />
        </mxCell>
        <mxCell id="B2Yxv_WPyGfu9oXpXjj1-20" value="" style="edgeStyle=orthogonalEdgeStyle;rounded=0;orthogonalLoop=1;jettySize=auto;html=1;" edge="1" parent="1" source="B2Yxv_WPyGfu9oXpXjj1-11" target="B2Yxv_WPyGfu9oXpXjj1-19">
          <mxGeometry relative="1" as="geometry" />
        </mxCell>
        <mxCell id="B2Yxv_WPyGfu9oXpXjj1-11" value="delta=0" style="rhombus;whiteSpace=wrap;html=1;" vertex="1" parent="1">
          <mxGeometry x="360" y="590" width="80" height="80" as="geometry" />
        </mxCell>
        <mxCell id="B2Yxv_WPyGfu9oXpXjj1-31" style="edgeStyle=orthogonalEdgeStyle;rounded=0;orthogonalLoop=1;jettySize=auto;html=1;" edge="1" parent="1" source="B2Yxv_WPyGfu9oXpXjj1-13">
          <mxGeometry relative="1" as="geometry">
            <mxPoint x="770" y="630" as="targetPoint" />
          </mxGeometry>
        </mxCell>
        <mxCell id="B2Yxv_WPyGfu9oXpXjj1-13" value="ptrinh có 1 nghiệm kép:-b/(2*a)" style="whiteSpace=wrap;html=1;" vertex="1" parent="1">
          <mxGeometry x="500" y="600" width="120" height="60" as="geometry" />
        </mxCell>
        <mxCell id="B2Yxv_WPyGfu9oXpXjj1-15" value="true" style="text;html=1;align=center;verticalAlign=middle;resizable=0;points=[];autosize=1;strokeColor=none;fillColor=none;" vertex="1" parent="1">
          <mxGeometry x="440" y="448" width="40" height="30" as="geometry" />
        </mxCell>
        <mxCell id="B2Yxv_WPyGfu9oXpXjj1-16" value="fase" style="text;html=1;align=center;verticalAlign=middle;resizable=0;points=[];autosize=1;strokeColor=none;fillColor=none;" vertex="1" parent="1">
          <mxGeometry x="385" y="528" width="50" height="30" as="geometry" />
        </mxCell>
        <mxCell id="B2Yxv_WPyGfu9oXpXjj1-18" value="true" style="text;html=1;align=center;verticalAlign=middle;resizable=0;points=[];autosize=1;strokeColor=none;fillColor=none;" vertex="1" parent="1">
          <mxGeometry x="440" y="608" width="40" height="30" as="geometry" />
        </mxCell>
        <mxCell id="B2Yxv_WPyGfu9oXpXjj1-23" value="" style="edgeStyle=orthogonalEdgeStyle;rounded=0;orthogonalLoop=1;jettySize=auto;html=1;" edge="1" parent="1" source="B2Yxv_WPyGfu9oXpXjj1-19">
          <mxGeometry relative="1" as="geometry">
            <mxPoint x="400" y="890" as="targetPoint" />
          </mxGeometry>
        </mxCell>
        <mxCell id="B2Yxv_WPyGfu9oXpXjj1-19" value="ptrinh vô nghiệm" style="whiteSpace=wrap;html=1;" vertex="1" parent="1">
          <mxGeometry x="340" y="760" width="120" height="60" as="geometry" />
        </mxCell>
        <mxCell id="B2Yxv_WPyGfu9oXpXjj1-21" value="fase" style="text;html=1;align=center;verticalAlign=middle;resizable=0;points=[];autosize=1;strokeColor=none;fillColor=none;" vertex="1" parent="1">
          <mxGeometry x="385" y="688" width="50" height="30" as="geometry" />
        </mxCell>
        <mxCell id="B2Yxv_WPyGfu9oXpXjj1-24" value="end" style="ellipse;whiteSpace=wrap;html=1;" vertex="1" parent="1">
          <mxGeometry x="340" y="890" width="120" height="80" as="geometry" />
        </mxCell>
        <mxCell id="B2Yxv_WPyGfu9oXpXjj1-28" value="" style="edgeStyle=orthogonalEdgeStyle;rounded=0;orthogonalLoop=1;jettySize=auto;html=1;" edge="1" parent="1" source="B2Yxv_WPyGfu9oXpXjj1-25" target="B2Yxv_WPyGfu9oXpXjj1-27">
          <mxGeometry relative="1" as="geometry" />
        </mxCell>
        <mxCell id="B2Yxv_WPyGfu9oXpXjj1-25" value="" style="shape=waypoint;sketch=0;size=6;pointerEvents=1;points=[];fillColor=default;resizable=0;rotatable=0;perimeter=centerPerimeter;snapToPoint=1;" vertex="1" parent="1">
          <mxGeometry x="760" y="910" width="20" height="20" as="geometry" />
        </mxCell>
        <mxCell id="B2Yxv_WPyGfu9oXpXjj1-27" value="" style="shape=waypoint;sketch=0;size=6;pointerEvents=1;points=[];fillColor=default;resizable=0;rotatable=0;perimeter=centerPerimeter;snapToPoint=1;" vertex="1" parent="1">
          <mxGeometry x="450" y="910" width="20" height="20" as="geometry" />
        </mxCell>
      </root>
    </mxGraphModel>
  </diagram>
</mxfile>
